Coordinates
version=1
nRows=17
nColumns=36
inDegrees=yes

Units are S.I. units (second, meters, Newtons, ...)
If the header above contains a line with 'inDegrees', this indicates whether rotational values are in degrees (yes) or radians (no).

endheader
time	pelvis_tilt	pelvis_list	pelvis_rotation	pelvis_tx	pelvis_ty	pelvis_tz	hip_flexion_r	hip_adduction_r	hip_rotation_r	knee_angle_r	knee_angle_r_beta	ankle_angle_r	subtalar_angle_r	mtp_angle_r	hip_flexion_l	hip_adduction_l	hip_rotation_l	knee_angle_l	knee_angle_l_beta	ankle_angle_l	subtalar_angle_l	mtp_angle_l	lumbar_extension	lumbar_bending	lumbar_rotation	arm_flex_r	arm_add_r	arm_rot_r	elbow_flex_r	pro_sup_r	arm_flex_l	arm_add_l	arm_rot_l	elbow_flex_l	pro_sup_l
      0.00000000	      5.90864681	     -5.92887073	      6.39297313	      0.84493528	      1.06494075	      0.86420902	     -2.81847896	      8.60383545	     -7.58307194	      8.15254699	      0.14228879	      6.68274214	     -5.05544657	     -6.82635842	     16.12732031	    -12.06648201	      1.79381153	     47.61229388	      0.83099129	      2.22719744	    -12.28492117	     -6.82635842	    -19.83507396	      9.04177965	      4.03282363	      9.28039057	    -12.10191164	      5.24316063	     23.38154052	     82.09437023	      1.26578907	     -5.93320100	     -0.45927898	     21.01817293	     77.99327030
      0.01666670	      5.80034034	     -6.36731474	      6.68658958	      0.84466306	      1.06182213	      0.86459853	     -3.38415857	      9.35965869	     -7.39236507	      8.33470939	      0.14546812	      6.81982868	     -4.99471191	     -6.82560353	     17.38110934	    -12.40667223	      1.88846122	     45.23706112	      0.78953566	      2.55860380	    -12.42018654	     -6.82560353	    -19.98467434	      9.41046981	      4.47839249	      9.33423547	    -12.11023893	      5.24130761	     23.37435483	     82.06096611	      0.89938946	     -6.04798614	     -0.44648783	     20.87803717	     77.98160246
      0.03333330	      6.33856173	     -6.03526120	      6.90558052	      0.84303586	      1.06081132	      0.86533903	     -4.79680147	      9.23060816	     -7.22170599	      8.31979673	      0.14520785	      6.93851295	     -4.41040585	     -6.86778425	     17.47207997	    -12.18218603	      1.30722529	     42.05590063	      0.73401394	      3.59236680	     -9.69348964	     -6.86778425	    -20.62230212	      9.23878488	      5.65539316	      9.16787419	    -12.16381934	      4.22577060	     23.23373361	     80.33534996	      1.36912657	     -6.14073970	      1.25352729	     20.02012152	     77.73420024
      0.05000000	      5.61750156	     -5.35315286	      7.43092548	      0.84316519	      1.05878464	      0.86563964	     -4.90226636	      8.52869561	     -8.10057081	      8.19080272	      0.14295648	      7.85838640	     -3.32575807	     -6.86348459	     18.37087694	    -11.10662623	      1.11770073	     37.66094328	      0.65730746	      4.10658660	     -7.85967129	     -6.86348459	    -19.96871575	      8.70167375	      4.95330052	      9.39890673	    -11.55689387	      3.11128612	     22.90522266	     79.14272336	      0.70329746	     -6.34304469	      0.98592374	     20.04042118	     76.74754314
      0.06666670	      4.77350831	     -4.75006124	      7.38847520	      0.84384062	      1.05734649	      0.86593525	     -4.84179049	      7.84970082	     -8.37249653	      8.22526238	      0.14355791	      8.86871971	     -3.08995841	     -6.86875867	     19.24812907	    -10.10482257	      0.60291397	     33.59108554	      0.58627504	      4.15823488	     -6.03384852	     -6.86875867	    -19.18544456	      8.09502482	      4.65579404	      9.48107658	    -11.09195668	      2.38498290	     23.15352526	     77.78766475	     -0.23685557	     -6.41176474	      0.26576265	     20.34789493	     75.34643119
      0.08333330	      3.83636781	     -4.26585237	      7.17908402	      0.84375856	      1.05578356	      0.86602476	     -4.71280074	      7.29244381	     -8.44499895	      8.19571016	      0.14304213	      9.99253990	     -3.20725296	     -6.84847327	     20.48969613	     -9.16596809	      0.14287099	     30.16136466	      0.52641512	      4.12942026	     -4.08420971	     -6.84847327	    -18.26235129	      7.60967024	      4.62654679	      9.57441410	    -10.71499459	      1.88403964	     23.75991174	     76.71047820	     -1.14673723	     -6.44174531	     -0.28361560	     20.48356683	     74.22761485
      0.10000000	      2.84555885	     -3.85688763	      6.87504856	      0.84215340	      1.05414592	      0.86554979	     -4.63422723	      6.89226304	     -8.07150921	      7.95346615	      0.13881417	     10.87255442	     -3.80396800	     -6.83004749	     22.04836762	     -8.26021768	     -0.20763308	     27.42042718	      0.47857674	      4.39627474	     -2.25593618	     -6.83004749	    -17.41367502	      7.21126428	      4.69140436	      9.81471604	    -10.36540121	      1.48448530	     24.85960298	     75.44312876	     -1.95507509	     -6.47634227	     -0.79579809	     20.56864221	     72.95964425
      0.11666670	      2.08088514	     -3.57266433	      7.01552653	      0.84037484	      1.05315664	      0.86382686	     -4.96974418	      6.68801850	     -8.62937643	      7.44943561	      0.13001718	     11.83432374	     -3.23145846	     -6.84674816	     23.30341098	     -7.31001710	      0.10403233	     24.62915632	      0.42985987	      4.20751542	     -1.00263681	     -6.84674816	    -16.67005181	      7.09402628	      4.36995105	      9.92264306	    -10.10788051	      0.94646361	     26.57789946	     73.22597604	     -2.55473916	     -6.41119753	     -1.41217134	     20.21091324	     70.79956558
      0.13333330	      1.47296946	     -3.41383457	      7.07286655	      0.84060357	      1.05222168	      0.86195013	     -5.66517177	      6.71323454	     -8.33869683	      6.67565251	      0.11651212	     11.68226280	     -3.61780600	     -6.82251825	     24.01796730	     -6.62357302	      0.40626484	     21.69339768	      0.37862122	      3.56330669	     -0.10015577	     -6.82251825	    -15.90470318	      7.08155248	      4.11916011	     10.09445736	     -9.95465371	      0.88243871	     27.47357053	     71.96686035	     -3.03057742	     -6.38949449	     -1.43045972	     19.42550143	     69.77725086
      0.15000000	      1.03479530	     -3.21596623	      7.37418779	      0.84278111	      1.05141311	      0.86001494	     -6.71027889	      6.71821613	     -8.35226337	      5.75846932	      0.10050425	     10.91155201	     -3.42285758	     -6.81140892	     24.31167628	     -5.83203310	      1.10642645	     18.76976583	      0.32759421	      2.97223094	      0.76049696	     -6.81140892	    -15.10211347	      6.99117697	      4.07147231	      9.82323169	    -10.00225195	      0.85606938	     28.00232845	     70.71664753	     -3.27627609	     -6.41581607	     -1.19665469	     18.60414477	     68.90166497
      0.16666670	      0.51862152	     -3.01379576	      7.67942269	      0.84499959	      1.04936496	      0.85881154	     -7.67628461	      6.67836110	     -8.19006122	      5.00644500	      0.08737895	      9.68607729	     -3.29897978	     -6.79735366	     24.68419246	     -5.01946529	      1.85999294	     16.25020472	      0.28361958	      2.86920251	      1.93323016	     -6.79735366	    -14.14911881	      6.87684288	      3.74603402	      9.49937100	     -9.98426665	      0.90463961	     28.26076260	     69.67431261	     -3.53568483	     -6.40234339	     -0.88003682	     17.49052249	     68.20224870
      0.18333330	     -0.19966810	     -2.81206245	      8.01004102	      0.84616368	      1.04524238	      0.85831355	     -8.21233696	      6.54912262	     -8.28991443	      4.74107556	      0.08274738	      8.51390710	     -3.03619030	     -6.86749222	     25.36725528	     -4.14059732	      2.85442992	     14.38127605	      0.25100062	      3.20649445	      2.94751792	     -6.86749222	    -12.96276340	      6.62354865	      3.64472687	      8.91889899	    -10.04258908	      1.04539272	     28.34006243	     68.52821354	     -3.62505586	     -6.49028304	     -0.02134584	     16.45515199	     67.46186653
      0.20000000	     -0.60574302	     -2.52535763	      8.25831451	      0.84645711	      1.03966820	      0.85826956	     -8.80011214	      6.33029531	     -8.36877730	      4.94854125	      0.08636834	      7.33457745	     -3.40286850	     -6.94532605	     25.74830920	     -3.32358231	      3.62779729	     13.26959888	      0.23159819	      3.78547931	      3.97164340	     -6.94532605	    -12.25550295	      6.19608036	      3.20465749	      8.60659333	     -9.89144243	      1.31602355	     28.46442821	     68.38698912	     -3.73020243	     -6.64087254	      0.12803799	     15.58805385	     67.22686981
      0.21666670	     -0.93387607	     -2.36116506	      8.41540194	      0.84593980	      1.03446232	      0.85783337	     -9.13858573	      6.17307340	     -8.68271256	      5.57622726	      0.09732353	      6.52248011	     -3.78472845	     -7.05607394	     26.04478255	     -2.75257261	      4.24152967	     12.93979383	      0.22584201	      4.13614164	      4.74377632	     -7.05607394	    -11.63986226	      5.87950175	      2.89014733	      8.37656360	     -9.84537063	      1.96816798	     28.40302316	     67.35653052	     -3.76656990	     -6.78608790	      0.57909039	     14.98513835	     66.38703386
      0.23333330	     -1.03805065	     -2.28678210	      8.42751112	      0.84469144	      1.03090000	      0.85671981	     -9.52797426	      6.09259124	     -8.81656207	      6.32897570	      0.11046146	      5.88893990	     -4.60237523	     -7.07490072	     26.05822605	     -2.48331538	      4.51932864	     13.29889401	      0.23210949	      3.89741044	      5.16615779	     -7.07490072	    -11.28716480	      5.63358015	      2.64285653	      8.21473947	     -9.70818488	      2.12193864	     28.43766921	     67.33887171	     -3.73094880	     -6.90113707	      0.40597697	     14.53102942	     66.30572071
      0.25000000	     -1.26226497	     -2.40059055	      8.36538229	      0.84369619	      1.02905383	      0.85460982	     -9.63743878	      6.12927704	     -8.77207771	      7.13174418	      0.12447242	      5.49533306	     -5.55974734	     -7.16277458	     26.16237847	     -2.48670828	      4.74854507	     14.12216546	      0.24647828	      2.90883240	      5.06499210	     -7.16277458	    -10.70527878	      5.58339808	      2.82516239	      7.87009258	     -9.89350687	      2.79328479	     28.34501834	     66.78251830	     -3.40131160	     -6.87797488	      0.52365066	     13.83822250	     65.94849582
      0.26666670	     -1.15534063	     -2.43955529	      8.21561838	      0.84431667	      1.02887620	      0.85163214	    -10.08085286	      6.08136437	     -8.53361487	      7.85228932	      0.13704830	      5.24755013	     -6.52957188	     -7.18546654	     25.81157734	     -2.59489757	      4.47299044	     15.14675468	      0.26436074	      1.45012907	      4.93661476	     -7.18546654	    -10.59689203	      5.53272720	      2.93794377	      7.67935877	     -9.93500690	      3.02784308	     28.14098200	     66.49650466	     -3.08197684	     -6.73054634	      0.44964899	     13.29131582	     65.80860425
